<svg xmlns="http://www.w3.org/2000/svg" viewBox="0 0 300 420" role="img" aria-label="O Jardim Invisível">
  <rect width="300" height="420" fill="#183d3b"/>
  <rect x="16" y="16" width="268" height="388" fill="none" stroke="#c8ab74" stroke-width="1"/>
  <circle cx="150" cy="231" r="78" fill="#d9b16a"/>
  <path d="M150 314V165m0 116c-35-41-64-38-73-63m73 36c34-47 61-48 73-78M150 217c-26-25-28-47-19-65m19 70c17-26 31-27 43-41" fill="none" stroke="#173c37" stroke-width="5" stroke-linecap="round"/>
  <g fill="#153b37"><ellipse cx="92" cy="207" rx="16" ry="7" transform="rotate(30 92 207)"/><ellipse cx="206" cy="188" rx="18" ry="7" transform="rotate(-32 206 188)"/><ellipse cx="128" cy="163" rx="14" ry="6" transform="rotate(55 128 163)"/><ellipse cx="191" cy="183" rx="12" ry="5" transform="rotate(-35 191 183)"/></g>
  <text x="150" y="48" fill="#e6d7b8" font-family="Georgia,serif" font-size="11" letter-spacing="3" text-anchor="middle">CLARA MONTEIRO</text>
  <text x="150" y="345" fill="#f6eedf" font-family="Georgia,serif" font-size="32" text-anchor="middle">O JARDIM</text>
  <text x="150" y="378" fill="#f6eedf" font-family="Georgia,serif" font-size="27" font-style="italic" text-anchor="middle">invisível</text>
</svg>
